<svg xmlns="http://www.w3.org/2000/svg" viewBox="0 0 1000 500" fill="white" aria-hidden="true">
  <!-- Decorative world map silhouette -->
  <g opacity="0.92">
    <!-- North America -->
    <path d="M120,120 L180,95 L240,100 L280,130 L300,170 L290,210 L260,240 L220,250 L180,235 L140,210 L110,170 Z"/>
    <!-- South America -->
    <path d="M220,260 L260,255 L280,290 L275,340 L250,380 L230,400 L210,370 L215,310 Z"/>
    <!-- Europe -->
    <path d="M460,110 L500,100 L530,115 L540,140 L520,160 L480,155 L455,135 Z"/>
    <!-- Africa -->
    <path d="M470,170 L510,165 L530,200 L525,260 L500,310 L475,300 L465,240 L460,190 Z"/>
    <!-- Asia -->
    <path d="M540,90 L620,80 L720,95 L780,120 L800,160 L780,200 L720,220 L640,210 L580,190 L540,160 L530,120 Z"/>
    <!-- Southeast Asia / Indonesia -->
    <path d="M680,230 L720,225 L740,245 L730,265 L690,260 Z"/>
    <!-- Australia -->
    <path d="M740,320 L790,315 L820,335 L810,360 L760,365 L735,345 Z"/>
  </g>
  <ellipse cx="500" cy="250" rx="470" ry="225" fill="none" stroke="white" stroke-width="1.5" opacity="0.2"/>
</svg>
